<svg width="16" height="16" viewBox="0 0 16 16" fill="none" xmlns="http://www.w3.org/2000/svg">
<path d="M8.12096 10.1236L8.11951 10.1251C8.10401 10.1407 8.08558 10.1531 8.06527 10.1616C8.04497 10.17 8.02318 10.1744 8.00118 10.1744C7.97917 10.1744 7.95739 10.17 7.93708 10.1616C7.91678 10.1531 7.89834 10.1407 7.88284 10.1251L7.8814 10.1236L4.54807 6.79031L4.54807 6.79031L4.54661 6.78887C4.53099 6.77337 4.51859 6.75494 4.51013 6.73463C4.50167 6.71432 4.49731 6.69254 4.49731 6.67053C4.49731 6.64853 4.50167 6.62674 4.51013 6.60644C4.51859 6.58613 4.53099 6.56769 4.54661 6.5522L4.54662 6.55221L4.54951 6.5493C4.56501 6.53368 4.58344 6.52128 4.60375 6.51282C4.62406 6.50436 4.64584 6.5 4.66784 6.5C4.68985 6.5 4.71163 6.50436 4.73194 6.51282C4.75225 6.52128 4.77068 6.53368 4.78618 6.5493L4.78721 6.55034L7.64721 9.41701L8.00118 9.7718L8.35514 9.41701L11.2147 6.55075C11.2148 6.55071 11.2148 6.55066 11.2149 6.55061C11.2466 6.51893 11.2896 6.50114 11.3345 6.50114C11.3568 6.50114 11.3788 6.50552 11.3993 6.51403C11.4199 6.52254 11.4386 6.53502 11.4543 6.55075C11.4861 6.58252 11.5039 6.62561 11.5039 6.67053C11.5039 6.69278 11.4995 6.71481 11.491 6.73536C11.4825 6.75591 11.47 6.77458 11.4543 6.79031L8.12096 10.1236L8.12096 10.1236Z" fill="#fff" stroke="#fff"/>
</svg>
