<svg width="10" height="7" viewBox="0 0 10 7" fill="none" xmlns="http://www.w3.org/2000/svg">
<path d="M9.77093 0.20257C9.70478 0.138382 9.62608 0.0874352 9.53938 0.0526676C9.45267 0.0178999 9.35966 0 9.26573 0C9.1718 0 9.07879 0.0178999 8.99208 0.0526676C8.90538 0.0874352 8.82668 0.138382 8.76053 0.20257L3.45949 5.31136L1.23235 3.16101C1.16367 3.09716 1.08259 3.04695 0.993752 3.01326C0.904911 2.97956 0.810045 2.96304 0.714569 2.96463C0.619093 2.96622 0.524877 2.98589 0.437301 3.02252C0.349725 3.05916 0.270503 3.11203 0.204159 3.17813C0.137815 3.24423 0.085649 3.32226 0.050638 3.40777C0.015627 3.49327 -0.00154303 3.58457 0.000108809 3.67646C0.00176064 3.76835 0.0222019 3.85903 0.0602651 3.94332C0.0983283 4.02761 0.153268 4.10385 0.221948 4.1677L2.95429 6.79743C3.02044 6.86162 3.09914 6.91257 3.18585 6.94733C3.27256 6.9821 3.36556 7 3.45949 7C3.55343 7 3.64643 6.9821 3.73314 6.94733C3.81985 6.91257 3.89855 6.86162 3.96469 6.79743L9.77093 1.20926C9.84315 1.14513 9.9008 1.0673 9.94022 0.980672C9.97965 0.894042 10 0.800492 10 0.705916C10 0.611341 9.97965 0.51779 9.94022 0.43116C9.9008 0.34453 9.84315 0.266698 9.77093 0.20257V0.20257Z" fill="white"/>
</svg>
